<?xml version="1.0" encoding="UTF-8" standalone="no"?>
<!DOCTYPE svg PUBLIC "-//W3C//DTD SVG 1.1//EN" "http://www.w3.org/Graphics/SVG/1.1/DTD/svg11.dtd">
<svg xmlns="http://www.w3.org/2000/svg" xmlns:xl="http://www.w3.org/1999/xlink" version="1.1" viewBox="476 1471 1126 1027" width="1126pt" height="1027pt" xmlns:dc="http://purl.org/dc/elements/1.1/">
  <metadata> Produced by OmniGraffle 7.0.2 
    <dc:date>2016-10-16 02:36:37 +0000</dc:date>
  </metadata>
  <defs/>
  <g stroke="none" stroke-opacity="1" stroke-dasharray="none" fill="none" fill-opacity="1">
    <title>Cyber 1 - Stencil Ready</title>
    <g>
      <title>Layer 1</title>
      <path d="M 901.0116 1705.8504 L 901.0116 1734.8422 L 1181.2657 1734.8422 L 1181.2657 1705.8504 Z M 901.0116 1647.8668 L 901.0116 1667.1947 L 1181.2657 1667.1947 L 1181.2657 1647.8668 Z M 901.0116 1599.5471 L 901.0116 1609.211 L 1181.2657 1609.211 L 1181.2657 1599.5471 Z M 901.0116 1556.0594 L 901.0116 1560.8914 L 1181.2657 1560.8914 L 1181.2657 1556.0594 Z M 901.0116 1512.5717 L 901.0116 1514.9877 L 1181.2657 1514.9877 L 1181.2657 1512.5717 Z M 901.0116 1471.5 L 901.0116 1472.708 L 1181.2657 1472.708 L 1181.2657 1471.5 Z M 1364.0983 2031.0683 L 1338.9906 2016.5724 L 1198.8636 2259.2795 L 1223.9712 2273.7754 Z M 1414.3135 2060.06 L 1397.5751 2050.3961 L 1257.448 2293.1033 L 1274.1865 2302.7672 Z M 1456.1596 2084.22 L 1447.7904 2079.388 L 1307.6633 2322.095 L 1316.0326 2326.927 Z M 1493.821 2105.9638 L 1489.6365 2103.5478 L 1349.5094 2346.255 L 1353.694 2348.671 Z M 1531.4825 2127.7076 L 1529.3902 2126.4996 L 1389.2632 2369.2068 L 1391.3555 2370.4148 Z M 1567.0517 2148.2435 L 1566.0055 2147.6395 L 1425.8785 2390.3466 L 1426.9246 2390.9506 Z M 850.2216 2272.2994 L 875.3292 2257.8035 L 735.2022 2015.0963 L 710.0945 2029.5922 Z M 800.0063 2301.2912 L 816.7447 2291.6273 L 676.6177 2048.92 L 659.8793 2058.584 Z M 758.16025 2325.451 L 766.5295 2320.619 L 626.4024 2077.912 L 618.0332 2082.7439 Z M 720.4988 2347.195 L 724.6834 2344.779 L 584.55635 2102.0717 L 580.37174 2104.4877 Z M 682.8373 2368.9387 L 684.9296 2367.7307 L 544.8026 2125.0236 L 542.7103 2126.2316 Z M 647.2682 2389.4746 L 648.3143 2388.8706 L 508.1873 2146.1634 L 507.1411 2146.7674 Z M 769.73155 2497.0456 L 1042.4783 2339.5752 L 1312.316 2495.366 C 1324.9674 2488.3437 1337.4054 2480.7962 1349.5982 2472.7236 L 1080.7283 2317.4915 L 1160.9239 2271.1906 L 1080.1092 2131.2154 L 1120.1635 2061.8394 L 1082.7659 2040.248 C 1082.0743 2041.0134 1081.3596 2041.7655 1080.6218 2042.5033 C 1057.0233 2066.1019 1018.7627 2066.1019 995.1642 2042.5033 C 994.0118 2041.351 992.9157 2040.1635 991.8759 2038.9447 L 956.8179 2059.1854 L 997.879 2130.3054 L 918.4124 2267.9457 L 1004.2283 2317.4915 L 732.1859 2474.5553 C 744.467 2482.5817 756.993 2490.0784 769.7316 2497.0456 Z M 1167.0507 1980.9406 L 1167.0507 1980.875 L 1335.3721 1980.875 L 1335.3721 1872.1489 L 1601.551 2025.8273 C 1602.1373 2011.1183 1602.1494 1996.3907 1601.5874 1981.681 L 1335.3721 1827.9816 L 1335.3721 1524.7404 C 1322.8495 1516.9831 1310.0885 1509.7635 1297.1221 1503.0814 L 1297.1221 1805.898 L 1213.1624 1757.4237 L 1129.5056 1902.3215 L 1052.006 1902.3215 L 1052.006 1941.009 C 1062.4925 1943.517 1072.4387 1948.8624 1080.6218 1957.0456 C 1097.6094 1974.033 1102.3684 1998.6183 1094.8988 2019.8627 L 1132.0237 2041.2968 L 1166.8704 1980.9406 Z M 1256.9619 2004.0274 L 1145.291 2197.447 L 1167.6089 2236.1027 L 1301.5977 2004.0274 Z M 773.4473 2004.0274 L 908.6829 2238.2623 L 931.0008 2199.6066 L 818.0831 2004.0274 Z M 911.4942 1980.9406 L 911.6432 1980.9406 L 944.9576 2038.6428 L 980.3352 2018.2175 C 973.6705 1997.359 978.6135 1973.5963 995.1642 1957.0456 C 1004.5116 1947.6981 1016.1595 1942.0532 1028.2854 1940.1109 L 1028.2854 1902.3215 L 947.9572 1902.3215 L 866.1739 1760.6686 L 784.1221 1808.0412 L 784.1221 1501.931 C 771.1585 1508.5376 758.3976 1515.6797 745.8721 1523.3572 L 745.87215 1523.3572 L 745.87215 1830.1248 L 477.2888 1985.1915 C 476.8198 1999.8528 476.9209 2014.5289 477.5921 2029.1837 L 745.87215 1874.2921 L 745.87215 1980.875 L 911.4942 1980.875 Z M 922.9455 1812.1537 L 1154.5468 1812.1537 L 1176.8647 1773.498 L 900.6276 1773.498 Z" fill="black"/>
    </g>
  </g>
</svg>
